<?xml version="1.0" encoding="utf-8"?>
<!-- Generator: Adobe Illustrator 26.0.2, SVG Export Plug-In . SVG Version: 6.00 Build 0)  -->
<svg version="1.1" id="Layer_1" xmlns="http://www.w3.org/2000/svg" xmlns:xlink="http://www.w3.org/1999/xlink" x="0px" y="0px"
	 viewBox="0 0 44 42" style="enable-background:new 0 0 44 42;" xml:space="preserve">
<style type="text/css">
	.st0{clip-path:url(#SVGID_00000040539808789973136240000017517724659548321967_);}
</style>
<g id="Group_7" transform="translate(0 0)">
	<g>
		<defs>
			<rect id="SVGID_1_" x="0.2" y="0.4" width="43.9" height="41.8"/>
		</defs>
		<clipPath id="SVGID_00000176034623461688518570000000805340627396241086_">
			<use xlink:href="#SVGID_1_"  style="overflow:visible;"/>
		</clipPath>
		
			<g id="Group_6" transform="translate(0 0.001)" style="clip-path:url(#SVGID_00000176034623461688518570000000805340627396241086_);">
			<path id="Path_9" d="M9.1,42c-0.3,0-0.6-0.3-0.6-0.6c0-0.1,0-0.1,0-0.2l4.9-15L0.7,17c-0.3-0.2-0.3-0.6-0.1-0.8
				C0.7,16,0.9,15.9,1,15.9h15.7L21.6,1c0.1-0.3,0.4-0.5,0.7-0.4c0.2,0.1,0.3,0.2,0.4,0.4l4.9,14.9h15.7c0.3,0,0.6,0.3,0.6,0.6
				c0,0.2-0.1,0.4-0.2,0.5L31,26.3l4.9,15c0.1,0.3-0.1,0.6-0.4,0.7c-0.2,0.1-0.4,0-0.5-0.1l-12.7-9.2L9.5,41.9
				C9.4,41.9,9.2,42,9.1,42 M2.9,17.1l11.6,8.4c0.2,0.2,0.3,0.4,0.2,0.7l-4.4,13.6l11.6-8.4c0.2-0.2,0.5-0.2,0.7,0l11.6,8.4
				l-4.4-13.6c-0.1-0.2,0-0.5,0.2-0.7l11.6-8.4H27.2c-0.3,0-0.5-0.2-0.6-0.4L22.2,3.1l-4.4,13.6c-0.1,0.2-0.3,0.4-0.6,0.4L2.9,17.1z
				"/>
			<path id="Path_10" d="M9.1,42.2c-0.5,0-0.8-0.4-0.8-0.8c0-0.1,0-0.2,0-0.3l4.8-14.8L0.6,17.2c-0.4-0.3-0.4-0.8-0.2-1.1
				c0.2-0.2,0.4-0.3,0.7-0.3h15.6l4.8-14.8c0.1-0.4,0.6-0.7,1-0.5c0.2,0.1,0.4,0.3,0.5,0.5l4.8,14.8h15.6c0.4,0,0.8,0.4,0.8,0.8
				c0,0.3-0.1,0.5-0.3,0.7l-12.6,9.1L36,41.1c0.1,0.4-0.1,0.9-0.5,1c-0.2,0.1-0.5,0-0.7-0.1l-12.6-9.1L9.6,42
				C9.5,42.1,9.3,42.2,9.1,42.2 M1,16.2c-0.2,0-0.4,0.2-0.4,0.4c0,0.1,0.1,0.2,0.2,0.3l12.7,9.2c0.1,0.1,0.1,0.2,0.1,0.2l-4.9,15
				c0,0.2,0,0.3,0.1,0.4c0.1,0.1,0.3,0.1,0.4,0l12.7-9.2c0.1-0.1,0.2-0.1,0.3,0L35,41.7c0.2,0.1,0.4,0.1,0.5-0.1
				c0.1-0.1,0.1-0.2,0.1-0.3l-4.9-14.9c0-0.1,0-0.2,0.1-0.2l12.7-9.2c0.2-0.1,0.2-0.3,0.1-0.5c-0.1-0.1-0.2-0.2-0.3-0.2H27.6
				c-0.1,0-0.2-0.1-0.2-0.2L22.5,1.1c-0.1-0.2-0.3-0.3-0.5-0.2c-0.1,0-0.2,0.1-0.2,0.2L17,16c0,0.1-0.1,0.2-0.2,0.2L1,16.2z
				 M34.1,40.1c0,0-0.1,0-0.1,0l-11.6-8.4c-0.1-0.1-0.3-0.1-0.4,0L10.4,40c-0.1,0.1-0.2,0.1-0.3,0c0-0.1-0.1-0.1,0-0.2l4.4-13.6
				c0.1-0.2,0-0.3-0.1-0.4L2.7,17.3c-0.1-0.1-0.1-0.2-0.1-0.2c0-0.1,0.1-0.2,0.2-0.2h14.3c0.2,0,0.3-0.1,0.4-0.3L22,3
				c0.1-0.1,0.2-0.2,0.3-0.1c0.1,0,0.1,0.1,0.1,0.1l4.4,13.6c0.1,0.2,0.2,0.3,0.4,0.3h14.3c0.1,0,0.2,0.1,0.2,0.2
				c0,0.1,0,0.2-0.1,0.2L30,25.7c-0.1,0.1-0.2,0.3-0.1,0.4l4.4,13.6c0,0.1,0,0.2-0.1,0.2C34.2,40,34.2,40.1,34.1,40.1 M3.6,17.4
				l11,8c0.3,0.2,0.4,0.6,0.3,0.9l-4.2,13l11-8c0.3-0.2,0.7-0.2,1,0l11,8l-4.2-13c-0.1-0.3,0-0.7,0.3-0.9l11-8H27.2
				c-0.4,0-0.7-0.2-0.8-0.6l-4.2-13l-4.2,13c-0.1,0.3-0.4,0.6-0.8,0.6L3.6,17.4z"/>
		</g>
	</g>
</g>
</svg>
