<?xml version="1.0" encoding="utf-8"?>
<!-- Generator: Adobe Illustrator 26.0.2, SVG Export Plug-In . SVG Version: 6.00 Build 0)  -->
<svg version="1.1" id="Layer_1" xmlns="http://www.w3.org/2000/svg" xmlns:xlink="http://www.w3.org/1999/xlink" x="0px" y="0px"
	 viewBox="0 0 28 27" style="enable-background:new 0 0 28 27;" xml:space="preserve">
<style type="text/css">
	.st0{fill:#FFFFFF;}
</style>
<g>
	<path class="st0" d="M6,26.4c-0.1,0-0.2,0-0.2-0.1c-0.1-0.1-0.2-0.3-0.1-0.4l3-9.4l-8-5.8c-0.1-0.1-0.2-0.3-0.1-0.4
		c0-0.2,0.2-0.3,0.4-0.3h9.9l3-9.4c0-0.2,0.2-0.3,0.4-0.3c0.2,0,0.3,0.1,0.4,0.3l3,9.4h9.9c0.2,0,0.3,0.1,0.4,0.3
		c0,0.2,0,0.3-0.1,0.4l-8,5.8l3,9.4c0,0.2,0,0.3-0.1,0.4c-0.1,0.1-0.3,0.1-0.4,0l-8-5.8l-8,5.8C6.2,26.4,6.1,26.4,6,26.4z M2.1,10.8
		l7.3,5.3c0.1,0.1,0.2,0.3,0.1,0.4l-2.8,8.5l7.3-5.3c0.1-0.1,0.3-0.1,0.4,0l7.3,5.3l-2.8-8.5c0-0.2,0-0.3,0.1-0.4l7.3-5.3h-9
		c-0.2,0-0.3-0.1-0.4-0.3L14.2,2l-2.8,8.5c0,0.2-0.2,0.3-0.4,0.3H2.1z"/>
	<path class="st0" d="M6,26.6c-0.1,0-0.2,0-0.3-0.1c-0.2-0.1-0.3-0.4-0.2-0.6l3-9.3l-7.9-5.7c-0.2-0.1-0.3-0.4-0.2-0.6
		C0.6,10.1,0.8,10,1,10h9.8l3-9.3c0.1-0.2,0.3-0.4,0.5-0.4s0.4,0.1,0.5,0.4l3,9.3h9.8c0.2,0,0.4,0.1,0.5,0.4c0.1,0.2,0,0.4-0.2,0.6
		l-7.9,5.7l3,9.3c0.1,0.2,0,0.4-0.2,0.6c-0.2,0.1-0.4,0.1-0.6,0l-7.9-5.7l-7.9,5.7C6.3,26.5,6.2,26.6,6,26.6z M1,10.2
		c-0.1,0-0.2,0.1-0.2,0.2c0,0.1,0,0.2,0.1,0.3l8,5.8c0,0,0.1,0.1,0.1,0.2l-3,9.4c0,0.1,0,0.2,0.1,0.3c0.1,0.1,0.2,0.1,0.3,0l8-5.8
		c0,0,0.1,0,0.2,0l8,5.8c0.1,0.1,0.2,0.1,0.3,0c0.1-0.1,0.1-0.2,0.1-0.3l-3-9.4c0-0.1,0-0.1,0.1-0.2l8-5.8c0.1-0.1,0.1-0.2,0.1-0.3
		c0-0.1-0.1-0.2-0.2-0.2h-9.9c-0.1,0-0.1,0-0.1-0.1l-3-9.4c-0.1-0.2-0.4-0.2-0.4,0l-3,9.4c0,0.1-0.1,0.1-0.1,0.1H1z M21.7,25.2
		C21.7,25.2,21.7,25.2,21.7,25.2l-7.3-5.3c-0.1-0.1-0.2-0.1-0.3,0l-7.3,5.3c0,0-0.1,0-0.2,0c0,0-0.1-0.1-0.1-0.2l2.8-8.5
		c0-0.1,0-0.2-0.1-0.3L2,10.9c0,0-0.1-0.1-0.1-0.2c0-0.1,0.1-0.1,0.1-0.1h9c0.1,0,0.2-0.1,0.2-0.2L14.1,2c0-0.1,0.2-0.1,0.3,0
		l2.8,8.5c0,0.1,0.1,0.2,0.2,0.2h9c0.1,0,0.1,0,0.1,0.1c0,0.1,0,0.1-0.1,0.2l-7.3,5.3c-0.1,0.1-0.1,0.2-0.1,0.3l2.8,8.5
		C21.9,25.1,21.9,25.1,21.7,25.2C21.8,25.2,21.8,25.2,21.7,25.2z M2.6,11l6.9,5c0.2,0.1,0.3,0.4,0.2,0.6L7,24.7l6.9-5
		c0.2-0.1,0.4-0.1,0.6,0l6.9,5l-2.6-8.1c-0.1-0.2,0-0.4,0.2-0.6l6.9-5h-8.6c-0.2,0-0.4-0.1-0.5-0.4l-2.6-8.1l-2.6,8.1
		c-0.1,0.2-0.3,0.4-0.5,0.4H2.6z"/>
</g>
</svg>
