<?xml version="1.0" encoding="utf-8"?>
<!-- Generator: Adobe Illustrator 26.0.2, SVG Export Plug-In . SVG Version: 6.00 Build 0)  -->
<svg version="1.1" id="Layer_1" xmlns="http://www.w3.org/2000/svg" xmlns:xlink="http://www.w3.org/1999/xlink" x="0px" y="0px"
	 viewBox="0 0 28 43" style="enable-background:new 0 0 28 43;" xml:space="preserve">
<style type="text/css">
	.st0{clip-path:url(#SVGID_00000036242353928373810680000007044961681506899606_);}
</style>
<g>
	<defs>
		<rect id="SVGID_1_" x="0.3" y="0.7" width="27.8" height="41.8"/>
	</defs>
	<clipPath id="SVGID_00000029727352193819050300000010034428378958278559_">
		<use xlink:href="#SVGID_1_"  style="overflow:visible;"/>
	</clipPath>
	<g id="Group_3" transform="translate(0 0)" style="clip-path:url(#SVGID_00000029727352193819050300000010034428378958278559_);">
		<path id="Path_5" d="M27.3,42.3H1.1c-0.3,0-0.6-0.3-0.6-0.6c0,0,0,0,0,0V10.3c0-0.3,0.3-0.6,0.6-0.6c0,0,0,0,0,0h26.3
			c0.3,0,0.6,0.3,0.6,0.6c0,0,0,0,0,0v31.4C27.9,42,27.6,42.3,27.3,42.3C27.3,42.3,27.3,42.3,27.3,42.3 M1.6,41.2h25.1V10.9H1.6
			V41.2z"/>
		<path id="Path_6" d="M27.3,42.5H1.1c-0.4,0-0.8-0.4-0.8-0.8V10.3c0-0.4,0.4-0.8,0.8-0.8h26.3c0.4,0,0.8,0.4,0.8,0.8v31.4
			C28.1,42.2,27.8,42.5,27.3,42.5 M1.1,10c-0.2,0-0.4,0.2-0.4,0.4l0,0v31.4c0,0.2,0.2,0.4,0.4,0.4h26.3c0.2,0,0.4-0.2,0.4-0.4V10.3
			c0-0.2-0.2-0.4-0.4-0.4L1.1,10z M26.8,41.4H1.6c-0.1,0-0.2-0.1-0.2-0.2l0,0V10.9c0-0.1,0.1-0.2,0.2-0.2c0,0,0,0,0,0h25.1
			c0.1,0,0.2,0.1,0.2,0.2c0,0,0,0,0,0v30.3C27,41.3,26.9,41.4,26.8,41.4C26.8,41.4,26.8,41.4,26.8,41.4 M1.8,40.9h24.7V11.1H1.8
			V40.9z"/>
		<path id="Path_7" d="M22.6,17c-0.3,0-0.6-0.3-0.6-0.6c0,0,0,0,0,0V9.9C22,5.6,18.5,2,14.2,2C9.9,2,6.3,5.6,6.3,9.9v6.6
			c0,0.3-0.3,0.6-0.6,0.6c-0.3,0-0.6-0.3-0.6-0.6c0,0,0,0,0,0V9.9c-0.1-5,3.9-9,8.9-9.1s9,3.9,9.1,8.9c0,0.1,0,0.1,0,0.2v6.6
			C23.2,16.8,22.9,17,22.6,17C22.6,17,22.6,17,22.6,17"/>
		<path id="Path_8" d="M22.6,17.2c-0.4,0-0.8-0.4-0.8-0.8V9.9c0-4.2-3.4-7.6-7.6-7.6S6.6,5.7,6.6,9.9v6.6c0,0.4-0.4,0.8-0.8,0.8
			c-0.4,0-0.7-0.3-0.8-0.8V9.9c0-5.1,4.1-9.2,9.2-9.2s9.2,4.1,9.2,9.2v6.6C23.4,16.9,23.1,17.2,22.6,17.2 M14.2,1.8
			c4.5,0,8.1,3.6,8.1,8.1v6.6c0,0.2,0.2,0.4,0.4,0.4c0.2,0,0.4-0.2,0.4-0.4V9.9C23,5,19,1.1,14.2,1.1S5.4,5,5.4,9.9v6.6
			c0,0.2,0.2,0.4,0.4,0.4c0.2,0,0.4-0.2,0.4-0.4V9.9C6.1,5.4,9.7,1.8,14.2,1.8"/>
	</g>
</g>
</svg>
