<?xml version="1.0" encoding="utf-8"?>
<!-- Generator: Adobe Illustrator 26.0.2, SVG Export Plug-In . SVG Version: 6.00 Build 0)  -->
<svg version="1.1" id="Layer_1" xmlns="http://www.w3.org/2000/svg" xmlns:xlink="http://www.w3.org/1999/xlink" x="0px" y="0px"
	 viewBox="0 0 28 43" style="enable-background:new 0 0 28 43;" xml:space="preserve">
<style type="text/css">
	.st0{fill:#FFFFFF;}
</style>
<g>
	<g>
		<path class="st0" d="M27.2,42.8H1.6c-0.3,0-0.6-0.3-0.6-0.6V10.7c0-0.3,0.2-0.6,0.6-0.6h25.7c0.3,0,0.6,0.3,0.6,0.6v31.5
			C27.8,42.5,27.5,42.8,27.2,42.8z M2.1,41.6h24.5V11.2H2.1V41.6z"/>
		<path class="st0" d="M27.2,43H1.6c-0.4,0-0.8-0.4-0.8-0.8V10.7c0-0.4,0.3-0.8,0.8-0.8h25.7c0.4,0,0.8,0.4,0.8,0.8v31.5
			C28,42.6,27.7,43,27.2,43z M1.6,10.3c-0.2,0-0.3,0.2-0.3,0.4v31.5c0,0.2,0.2,0.4,0.3,0.4h25.7c0.2,0,0.3-0.2,0.3-0.4V10.7
			c0-0.2-0.2-0.4-0.3-0.4H1.6z M26.7,41.9H2.1c-0.1,0-0.2-0.1-0.2-0.2V11.2C1.9,11.1,2,11,2.1,11h24.5c0.1,0,0.2,0.1,0.2,0.2v30.4
			C26.9,41.8,26.8,41.9,26.7,41.9z M2.3,41.4h24.1v-30H2.3V41.4z"/>
	</g>
	<g>
		<path class="st0" d="M22.6,17.4c-0.3,0-0.6-0.3-0.6-0.6v-6.6c0-4.3-3.4-7.9-7.7-7.9c-4.2,0-7.7,3.5-7.7,7.9v6.6
			c0,0.3-0.2,0.6-0.6,0.6c-0.3,0-0.6-0.3-0.6-0.6v-6.6c0-5,3.9-9,8.8-9s8.8,4.1,8.8,9v6.6C23.2,17.2,22.9,17.4,22.6,17.4z"/>
		<path class="st0" d="M22.6,17.6c-0.4,0-0.8-0.4-0.8-0.8v-6.6c0-4.2-3.3-7.7-7.5-7.7S6.9,6,6.9,10.2v6.6c0,0.4-0.3,0.8-0.8,0.8
			c-0.4,0-0.8-0.4-0.8-0.8v-6.6c0-5.1,4-9.2,9-9.2s9,4.1,9,9.2v6.6C23.4,17.3,23.1,17.6,22.6,17.6z M14.4,2.1c4.3,0,7.9,3.6,7.9,8.1
			v6.6c0,0.2,0.2,0.4,0.3,0.4c0.2,0,0.3-0.2,0.3-0.4v-6.6c0-4.9-3.8-8.8-8.6-8.8c-4.7,0-8.6,4-8.6,8.8v6.6c0,0.2,0.2,0.4,0.3,0.4
			c0.2,0,0.3-0.2,0.3-0.4v-6.6C6.5,5.8,10.1,2.1,14.4,2.1z"/>
	</g>
</g>
</svg>
