<?xml version="1.0" encoding="utf-8"?>
<!-- Generator: Adobe Illustrator 26.0.2, SVG Export Plug-In . SVG Version: 6.00 Build 0)  -->
<svg version="1.1" id="Layer_1" xmlns="http://www.w3.org/2000/svg" xmlns:xlink="http://www.w3.org/1999/xlink" x="0px" y="0px"
	 viewBox="0 0 54 55" style="enable-background:new 0 0 54 55;" xml:space="preserve">
<style type="text/css">
	.st0{fill-rule:evenodd;clip-rule:evenodd;}
</style>
<path class="st0" d="M18.8,7.4L20.4,4c0.9-1.9,2.9-3.1,5.1-3.1c1,0,2.3,0,3.4,0C31,0.9,33,2.1,33.9,4l1.7,3.4l3.6-1.2
	c2-0.7,4.3-0.2,5.8,1.3c1,1,2,2,2,2c1,1,1,2.6,0,3.5c-1,1-2.6,1-3.5,0c0,0-1.1-1.1-2-2c-0.2-0.2-0.4-0.2-0.7-0.2
	c-1.8,0.6-4.4,1.5-5.2,1.8c-0.7,0.2-1.5,0.2-2.2-0.1l-0.1-0.1c-0.2-0.1-0.4-0.2-0.5-0.3c-0.4-0.3-0.7-0.7-0.9-1.1
	c-0.3-0.7-1.6-3.2-2.4-4.9c-0.1-0.2-0.3-0.4-0.6-0.4c-1,0-2.3,0-3.4,0c-0.2,0-0.5,0.1-0.6,0.4c-0.8,1.7-2.1,4.2-2.4,4.9
	c-0.3,0.7-0.9,1.2-1.6,1.5l-0.1,0.1c-0.2,0.1-0.4,0.1-0.6,0.2c-0.5,0.1-1,0-1.4-0.1c-0.7-0.3-3.3-1.1-5.2-1.8
	c-0.2-0.1-0.5,0-0.6,0.2c-0.7,0.7-1.7,1.7-2.4,2.4c-0.2,0.2-0.2,0.4-0.2,0.6c0.6,1.8,1.5,4.4,1.8,5.2c0.2,0.7,0.2,1.5-0.1,2.2
	c0,0,0,0,0,0c-0.1,0.3-0.3,0.6-0.5,0.8c-0.3,0.3-0.6,0.6-1,0.8c-0.7,0.3-3.2,1.6-4.9,2.4c-0.2,0.1-0.4,0.3-0.4,0.6c0,1,0,2.3,0,3.4
	c0,0.2,0.1,0.5,0.4,0.6c1.7,0.8,4.2,2.1,4.9,2.4c0.7,0.3,1.2,0.9,1.5,1.6l0.1,0.1c0.1,0.2,0.1,0.4,0.2,0.6c0.1,0.5,0,1-0.1,1.4
	c-0.3,0.7-1.1,3.3-1.8,5.2c-0.1,0.2,0,0.5,0.2,0.6c0.7,0.7,1.7,1.7,2.4,2.4c0.2,0.2,0.4,0.2,0.6,0.2c1.8-0.6,4.4-1.5,5.2-1.8
	c0.7-0.2,1.5-0.2,2.2,0.1c0,0,0,0,0,0c0.3,0.1,0.6,0.3,0.8,0.5c0.3,0.3,0.6,0.6,0.8,1c0.3,0.7,1.6,3.2,2.4,4.9
	c0.1,0.2,0.3,0.4,0.6,0.4c1,0,2.3,0,3.4,0c0.2,0,0.5-0.1,0.6-0.4c0.8-1.7,2.1-4.2,2.4-4.9c0.3-0.7,0.9-1.2,1.6-1.5l0.1-0.1
	c0.2-0.1,0.4-0.1,0.6-0.2c0.5-0.1,1,0,1.4,0.1c0.7,0.3,3.3,1.1,5.2,1.8c0.2,0.1,0.5,0,0.7-0.2c0.7-0.7,1.7-1.7,2.4-2.4
	c0.2-0.2,0.2-0.4,0.2-0.6c-0.6-1.8-1.5-4.4-1.8-5.2c-0.2-0.7-0.2-1.5,0.1-2.2c0,0,0,0,0,0c0.1-0.3,0.3-0.6,0.5-0.8
	c0.3-0.3,0.6-0.6,1-0.8c0.7-0.3,3.2-1.6,4.9-2.4c0.2-0.1,0.4-0.3,0.4-0.6c0-1,0-2.3,0-3.4c0-0.2-0.1-0.5-0.4-0.6
	c-2.1-1-5.2-2.6-5.2-2.6c-1.2-0.6-1.7-2.1-1.1-3.3c0.6-1.2,2.1-1.7,3.3-1.1c0,0,3.2,1.6,5.2,2.6c1.9,0.9,3.1,2.9,3.1,5.1
	c0,1,0,2.3,0,3.4c0,2.1-1.2,4.1-3.1,5.1l-3.4,1.7l1.2,3.6c0.7,2,0.2,4.3-1.3,5.8c-0.7,0.7-1.7,1.7-2.4,2.4c-1.5,1.5-3.8,2-5.8,1.3
	L35.6,48l-1.7,3.4c-0.9,1.9-2.9,3.1-5.1,3.1c-1,0-2.3,0-3.4,0c-2.1,0-4.1-1.2-5.1-3.1L18.8,48l-3.6,1.2c-2,0.7-4.3,0.2-5.8-1.3
	c-0.7-0.7-1.7-1.7-2.4-2.4c-1.5-1.5-2-3.8-1.3-5.8l1.2-3.6l-3.4-1.7c-1.9-0.9-3.1-2.9-3.1-5.1c0-1,0-2.3,0-3.4
	c0-2.1,1.2-4.1,3.1-5.1l3.4-1.7l-1.2-3.6C5,13.7,5.5,11.4,7,9.9c0.7-0.7,1.7-1.7,2.4-2.4c1.5-1.5,3.8-2,5.8-1.3L18.8,7.4L18.8,7.4z
	 M25.3,31.6c-1.1-0.5-2-1.5-2.4-2.8c-0.6-2.3,0.8-4.7,3.1-5.3c2.3-0.6,4.7,0.8,5.3,3.1c0.3,1,0.2,2-0.3,2.9c-0.6,1.3,0,2.7,1.2,3.3
	c1.3,0.6,2.7,0,3.3-1.2c0.9-1.9,1.1-4.1,0.5-6.3c-1.3-5-6.4-7.9-11.4-6.6c-5,1.3-7.9,6.4-6.6,11.4c0.7,2.8,2.7,4.9,5.1,6
	c1.3,0.6,2.7,0,3.3-1.2C27.1,33.7,26.6,32.2,25.3,31.6L25.3,31.6z"/>
</svg>
