<?xml version="1.0" encoding="utf-8"?>
<!-- Generator: Adobe Illustrator 26.0.2, SVG Export Plug-In . SVG Version: 6.00 Build 0)  -->
<svg version="1.1" id="Layer_1" xmlns="http://www.w3.org/2000/svg" xmlns:xlink="http://www.w3.org/1999/xlink" x="0px" y="0px"
	 viewBox="0 0 48 61" style="enable-background:new 0 0 48 61;" xml:space="preserve">
<style type="text/css">
	.st0{fill-rule:evenodd;clip-rule:evenodd;}
</style>
<path class="st0" d="M6.3,48c4.2,4.1,10.1,6.8,16.7,7.1c1.4,0.1,2.4,1.2,2.4,2.6c-0.1,1.4-1.2,2.4-2.6,2.4
	C14.2,59.7,6.7,56,1.6,50.4c-0.5-0.6-0.8-1.4-0.6-2.2C3.3,38.4,12.7,31,24.1,31c11.4,0,20.9,7.4,23.1,17.1c0.2,0.8,0,1.6-0.6,2.2
	c-2.6,2.9-6,5.4-9.8,7.1c-1.3,0.6-2.7,0-3.3-1.3c-0.6-1.3,0-2.7,1.3-3.3C37.5,51.7,40,50,42,48c-2.2-7-9.4-12-17.9-12
	C15.7,36,8.5,41,6.3,48L6.3,48z M24.1,0.4c-7.3,0-13.2,5.9-13.2,13.2c0,7.3,5.9,13.2,13.2,13.2c7.3,0,13.2-5.9,13.2-13.2
	C37.4,6.3,31.4,0.4,24.1,0.4L24.1,0.4z M24.1,5.4c4.5,0,8.2,3.7,8.2,8.2s-3.7,8.2-8.2,8.2c-4.5,0-8.2-3.7-8.2-8.2S19.6,5.4,24.1,5.4
	L24.1,5.4z"/>
</svg>
